<?xml version="1.0" standalone="no"?>
<!DOCTYPE svg PUBLIC "-//W3C//DTD SVG 20010904//EN"
 "http://www.w3.org/TR/2001/REC-SVG-20010904/DTD/svg10.dtd">
<svg version="1.0" xmlns="http://www.w3.org/2000/svg"
 width="100.000000pt" height="100.000000pt" viewBox="0 0 100.000000 100.000000"
 preserveAspectRatio="xMidYMid meet">
<metadata>
Created by potrace 1.14, written by Peter Selinger 2001-2017
</metadata>
<g transform="translate(0.000000,100.000000) scale(0.100000,-0.100000)"
fill="#000000" stroke="none">
<path d="M170 922 c-18 -9 -43 -30 -54 -45 -20 -27 -21 -43 -24 -357 -2 -269
0 -335 11 -363 19 -45 79 -90 117 -89 17 0 30 -4 30 -9 0 -5 5 -9 11 -9 5 0 7
5 4 10 -9 14 18 12 34 -3 11 -9 13 -9 7 1 -8 13 15 17 28 5 10 -11 37 -12 30
-2 -8 14 20 11 35 -4 10 -8 12 -8 7 0 -8 15 55 13 66 -2 5 -6 8 -5 8 4 0 11 3
11 17 0 14 -12 16 -12 8 0 -6 11 -2 13 18 9 15 -3 28 0 30 6 2 7 12 7 32 -2
15 -7 30 -10 33 -7 3 3 0 5 -6 5 -7 0 -12 5 -12 11 0 6 9 9 20 6 11 -3 20 -1
20 4 0 5 9 9 20 9 11 0 20 4 20 9 0 9 57 27 72 23 4 -1 5 5 2 12 -7 17 31 40
48 30 6 -4 8 -3 4 4 -7 11 33 75 62 99 9 8 11 12 5 8 -17 -8 -16 11 0 27 8 7
12 20 9 30 -2 11 1 18 9 18 11 0 11 2 -1 10 -12 8 -12 10 5 11 11 0 14 3 7 6
-6 2 -9 9 -6 14 8 13 11 189 3 189 -3 0 -6 12 -7 28 0 15 -1 30 -2 35 -1 4 -3
10 -4 15 -9 36 -58 113 -96 151 -94 93 -179 118 -415 119 -144 1 -176 -1 -205
-16z"/>
<path d="M775 159 c-4 -6 -5 -12 -2 -15 2 -3 7 2 10 11 7 17 1 20 -8 4z"/>
</g>
</svg>
